<svg width="34" height="34" viewBox="0 0 34 34" fill="none" xmlns="http://www.w3.org/2000/svg">
<circle cx="17" cy="17" r="17" fill="white"/>
<path d="M7.34375 26.875H27.6562M8.90625 8.125V26.875M19.8437 8.125V26.875M26.0937 12.8125V26.875M12.0312 12.0312H12.8125M12.0312 15.1562H12.8125M12.0312 18.2812H12.8125M15.9375 12.0312H16.7187M15.9375 15.1562H16.7187M15.9375 18.2812H16.7187M12.0312 26.875V23.3594C12.0312 22.7125 12.5562 22.1875 13.2031 22.1875H15.5469C16.1937 22.1875 16.7187 22.7125 16.7187 23.3594V26.875M8.125 8.125H20.625M19.8437 12.8125H26.875M22.9687 16.7187H22.9771V16.7271H22.9687V16.7187ZM22.9687 19.8437H22.9771V19.8521H22.9687V19.8437ZM22.9687 22.9687H22.9771V22.9771H22.9687V22.9687Z" stroke="black" stroke-width="1.5" stroke-linecap="round" stroke-linejoin="round"/>
</svg>
