<svg width="131" height="39" viewBox="0 0 131 39" fill="none" xmlns="http://www.w3.org/2000/svg">
<g clip-path="url(#clip0_378_49)">
<path d="M17 36C26.3888 36 34 28.3888 34 19C34 9.61116 26.3888 2 17 2C7.61116 2 0 9.61116 0 19C0 28.3888 7.61116 36 17 36Z" fill="#2563EB"/>
<path d="M7.34375 28.875H27.6562M8.90625 10.125V28.875M19.8437 10.125V28.875M26.0937 14.8125V28.875M12.0312 14.0312H12.8125M12.0312 17.1562H12.8125M12.0312 20.2812H12.8125M15.9375 14.0312H16.7187M15.9375 17.1562H16.7187M15.9375 20.2812H16.7187M12.0312 28.875V25.3594C12.0312 24.7125 12.5562 24.1875 13.2031 24.1875H15.5469C16.1937 24.1875 16.7187 24.7125 16.7187 25.3594V28.875M8.125 10.125H20.625M19.8437 14.8125H26.875M22.9687 18.7187H22.9771V18.7271H22.9687V18.7187ZM22.9687 21.8437H22.9771V21.8521H22.9687V21.8437ZM22.9687 24.9687H22.9771V24.9771H22.9687V24.9687Z" stroke="black" stroke-width="1.5" stroke-linecap="round" stroke-linejoin="round"/>
</g>
<path d="M40.8281 25H38.1143V15.1562H42.9541C43.4098 15.1562 43.8496 15.2109 44.2734 15.3203C44.6973 15.4251 45.071 15.5938 45.3945 15.8262C45.7227 16.054 45.9824 16.3503 46.1738 16.7148C46.3698 17.0794 46.4678 17.5215 46.4678 18.041C46.4678 18.4466 46.3812 18.8294 46.208 19.1895C46.0394 19.5449 45.8115 19.8639 45.5244 20.1465C45.2419 20.4245 44.916 20.6569 44.5469 20.8438C44.1777 21.026 43.7949 21.1468 43.3984 21.2061C43.5762 21.5068 43.7607 21.7917 43.9521 22.0605C44.1481 22.3294 44.3441 22.5824 44.54 22.8193C44.7406 23.0518 44.9388 23.2682 45.1348 23.4688C45.3307 23.6647 45.5176 23.8447 45.6953 24.0088C46.1146 24.3916 46.5293 24.722 46.9395 25H43.5557C43.2822 24.7402 43.0225 24.4281 42.7764 24.0635C42.5667 23.7536 42.3548 23.3708 42.1406 22.915C41.931 22.4548 41.7692 21.9238 41.6553 21.3223H40.8281V25ZM43.7129 18.041C43.7129 17.3802 43.5511 16.8949 43.2275 16.585C42.9085 16.2751 42.4277 16.1201 41.7852 16.1201H40.8281V20.3926H41.7852C42.127 20.3926 42.4186 20.3288 42.6602 20.2012C42.9062 20.069 43.1068 19.8958 43.2617 19.6816C43.4167 19.4629 43.5306 19.2122 43.6035 18.9297C43.6764 18.6471 43.7129 18.3509 43.7129 18.041ZM49.6807 21.2539C49.9632 21.3177 50.2458 21.3678 50.5283 21.4043C50.8109 21.4408 51.0957 21.459 51.3828 21.459C51.6836 21.459 51.9616 21.4316 52.2168 21.377C52.4766 21.3177 52.6999 21.222 52.8867 21.0898C53.0781 20.9531 53.2285 20.7731 53.3379 20.5498C53.4473 20.3265 53.502 20.0485 53.502 19.7158C53.502 19.4469 53.4655 19.2008 53.3926 18.9775C53.3197 18.7542 53.2103 18.5628 53.0645 18.4033C52.9232 18.2438 52.7477 18.1208 52.5381 18.0342C52.3285 17.943 52.0846 17.8975 51.8066 17.8975C51.5469 17.8975 51.3122 17.9453 51.1025 18.041C50.8975 18.1367 50.7152 18.2666 50.5557 18.4307C50.4007 18.5902 50.2663 18.777 50.1523 18.9912C50.043 19.2054 49.9518 19.4287 49.8789 19.6611C49.806 19.8936 49.7536 20.1283 49.7217 20.3652C49.6898 20.6022 49.6738 20.8255 49.6738 21.0352C49.6738 21.0716 49.6738 21.1081 49.6738 21.1445C49.6738 21.181 49.6761 21.2174 49.6807 21.2539ZM55.375 19.6953C55.375 20.0189 55.3226 20.3083 55.2178 20.5635C55.113 20.8141 54.9694 21.0352 54.7871 21.2266C54.6094 21.418 54.402 21.5798 54.165 21.7119C53.9281 21.8441 53.6751 21.9535 53.4062 22.04C53.1374 22.1221 52.8594 22.1813 52.5723 22.2178C52.2897 22.2542 52.014 22.2725 51.7451 22.2725C51.4033 22.2725 51.0661 22.2497 50.7334 22.2041C50.4007 22.154 50.0726 22.0765 49.749 21.9717C49.7992 22.2725 49.8789 22.5596 49.9883 22.833C50.0977 23.1019 50.2435 23.3389 50.4258 23.5439C50.6081 23.7445 50.8314 23.904 51.0957 24.0225C51.3646 24.141 51.6813 24.2002 52.0459 24.2002C52.2874 24.2002 52.5176 24.1637 52.7363 24.0908C52.9551 24.0179 53.1556 23.9154 53.3379 23.7832C53.5202 23.651 53.6797 23.4938 53.8164 23.3115C53.9577 23.1292 54.0716 22.9264 54.1582 22.7031L55.1562 23.0723C55.0059 23.4323 54.7985 23.7445 54.5342 24.0088C54.2744 24.2686 53.9782 24.485 53.6455 24.6582C53.3174 24.8268 52.9665 24.9521 52.5928 25.0342C52.2236 25.1162 51.8568 25.1572 51.4922 25.1572C50.8906 25.1572 50.3346 25.057 49.8242 24.8564C49.3138 24.6514 48.874 24.3665 48.5049 24.002C48.1357 23.6374 47.8464 23.2021 47.6367 22.6963C47.4271 22.1904 47.3223 21.6367 47.3223 21.0352C47.3223 20.4336 47.4271 19.8799 47.6367 19.374C47.8464 18.8682 48.1357 18.4329 48.5049 18.0684C48.874 17.7038 49.3138 17.4212 49.8242 17.2207C50.3346 17.0156 50.8906 16.9131 51.4922 16.9131C51.7839 16.9131 52.0824 16.9336 52.3877 16.9746C52.693 17.0156 52.9893 17.0817 53.2764 17.1729C53.5635 17.2594 53.8346 17.3734 54.0898 17.5146C54.3451 17.6559 54.5661 17.8314 54.7529 18.041C54.9443 18.2461 55.0947 18.4854 55.2041 18.7588C55.318 19.0322 55.375 19.3444 55.375 19.6953ZM64.7676 25H62.457V24.0566C62.1836 24.4303 61.8532 24.7083 61.4658 24.8906C61.083 25.0684 60.6615 25.1572 60.2012 25.1572C59.5996 25.1572 59.0618 25.0501 58.5879 24.8359C58.1139 24.6217 57.7129 24.3301 57.3848 23.9609C57.0566 23.5872 56.806 23.1497 56.6328 22.6484C56.4596 22.1471 56.373 21.6094 56.373 21.0352C56.373 20.4609 56.4596 19.9232 56.6328 19.4219C56.806 18.9206 57.0566 18.4854 57.3848 18.1162C57.7129 17.7425 58.1139 17.4486 58.5879 17.2344C59.0618 17.0202 59.5996 16.9131 60.2012 16.9131C60.5065 16.9131 60.7959 16.9587 61.0693 17.0498C61.3473 17.141 61.6003 17.2708 61.8281 17.4395C62.0605 17.6035 62.2633 17.804 62.4365 18.041C62.6143 18.2734 62.7533 18.5332 62.8535 18.8203L63.8789 17.1045H64.7676V25ZM62.4434 21.0352C62.4434 20.8301 62.432 20.6136 62.4092 20.3857C62.391 20.1579 62.3568 19.9323 62.3066 19.709C62.2565 19.4857 62.1859 19.2738 62.0947 19.0732C62.0081 18.8682 61.8942 18.6882 61.7529 18.5332C61.6162 18.3737 61.4499 18.2484 61.2539 18.1572C61.0579 18.0661 60.8301 18.0205 60.5703 18.0205C60.3105 18.0205 60.085 18.0684 59.8936 18.1641C59.7021 18.2552 59.5381 18.3805 59.4014 18.54C59.2646 18.695 59.1507 18.875 59.0596 19.0801C58.973 19.2852 58.9046 19.4993 58.8545 19.7227C58.8044 19.946 58.7679 20.1715 58.7451 20.3994C58.7269 20.6227 58.7178 20.8346 58.7178 21.0352C58.7178 21.2357 58.7269 21.4499 58.7451 21.6777C58.7679 21.9056 58.8044 22.1312 58.8545 22.3545C58.9046 22.5778 58.973 22.792 59.0596 22.9971C59.1507 23.2021 59.2646 23.3844 59.4014 23.5439C59.5381 23.6989 59.7021 23.8242 59.8936 23.9199C60.085 24.0111 60.3105 24.0566 60.5703 24.0566C60.8073 24.0566 61.0169 24.0088 61.1992 23.9131C61.3861 23.8128 61.5479 23.6807 61.6846 23.5166C61.8258 23.3525 61.9443 23.1657 62.04 22.9561C62.1357 22.7464 62.2132 22.5299 62.2725 22.3066C62.3317 22.0833 62.375 21.8623 62.4023 21.6436C62.4297 21.4202 62.4434 21.2174 62.4434 21.0352ZM69.0127 25H66.7021V13.4678H67.5908L69.0127 15.8672V25ZM78.1592 25H71.0908V15.1562H78.1592V16.4141H73.8047V19.4561H77.168V20.707H73.8047V23.7422H78.1592V25ZM86.376 22.4775C86.376 22.8239 86.3258 23.1315 86.2256 23.4004C86.1253 23.6693 85.9886 23.904 85.8154 24.1045C85.6423 24.3005 85.4372 24.4668 85.2002 24.6035C84.9632 24.7357 84.708 24.8428 84.4346 24.9248C84.1657 25.0068 83.8831 25.0661 83.5869 25.1025C83.2907 25.139 82.9967 25.1572 82.7051 25.1572C82.3132 25.1572 81.9668 25.1322 81.666 25.082C81.3652 25.0319 81.0781 24.9521 80.8047 24.8428C80.5312 24.7288 80.2578 24.583 79.9844 24.4053C79.7155 24.2275 79.4147 24.0111 79.082 23.7559L80.4287 22.6553C80.5518 22.8877 80.7135 23.0996 80.9141 23.291C81.1191 23.4779 81.3311 23.6396 81.5498 23.7764C81.7686 23.9131 81.9805 24.0179 82.1855 24.0908C82.3906 24.1637 82.557 24.2002 82.6846 24.2002C82.7894 24.2002 82.9079 24.1979 83.04 24.1934C83.1722 24.1842 83.3066 24.1706 83.4434 24.1523C83.5801 24.1296 83.7145 24.0977 83.8467 24.0566C83.9788 24.0156 84.0951 23.9609 84.1953 23.8926C84.3001 23.8197 84.3822 23.7308 84.4414 23.626C84.5052 23.5166 84.5371 23.3867 84.5371 23.2363C84.5371 23.0814 84.4961 22.9469 84.4141 22.833C84.3366 22.7145 84.234 22.612 84.1064 22.5254C83.9788 22.4388 83.833 22.3659 83.6689 22.3066C83.5049 22.2474 83.3385 22.195 83.1699 22.1494C83.0059 22.1038 82.8464 22.0651 82.6914 22.0332C82.5365 21.9967 82.402 21.9626 82.2881 21.9307C82.0785 21.8714 81.8574 21.8122 81.625 21.7529C81.3926 21.6891 81.1624 21.6185 80.9346 21.541C80.7067 21.459 80.488 21.3633 80.2783 21.2539C80.0732 21.1445 79.891 21.0146 79.7314 20.8643C79.5765 20.7093 79.4512 20.5293 79.3555 20.3242C79.2643 20.1146 79.2188 19.8708 79.2188 19.5928C79.2188 19.0824 79.319 18.6562 79.5195 18.3145C79.7246 17.9681 79.9935 17.6924 80.3262 17.4873C80.6589 17.2777 81.0371 17.1296 81.4609 17.043C81.8848 16.9564 82.3154 16.9131 82.7529 16.9131C83.0537 16.9131 83.3704 16.945 83.7031 17.0088C84.0358 17.068 84.3594 17.1592 84.6738 17.2822C84.9883 17.4007 85.2822 17.5465 85.5557 17.7197C85.8291 17.8929 86.057 18.0911 86.2393 18.3145L84.8926 19.4219C84.7923 19.1484 84.6602 18.9137 84.4961 18.7178C84.3366 18.5218 84.1611 18.3623 83.9697 18.2393C83.7829 18.1117 83.5892 18.0182 83.3887 17.959C83.1927 17.8997 83.0104 17.8701 82.8418 17.8701C82.6777 17.8701 82.4932 17.877 82.2881 17.8906C82.083 17.9043 81.8893 17.943 81.707 18.0068C81.5293 18.0706 81.3766 18.1686 81.249 18.3008C81.126 18.4284 81.0645 18.6061 81.0645 18.834C81.0645 18.998 81.1009 19.1393 81.1738 19.2578C81.2513 19.3717 81.3516 19.472 81.4746 19.5586C81.5977 19.6406 81.7367 19.7113 81.8916 19.7705C82.0511 19.8252 82.2129 19.8753 82.377 19.9209C82.541 19.9619 82.7005 19.9984 82.8555 20.0303C83.0104 20.0622 83.1494 20.0964 83.2725 20.1328C83.4821 20.1921 83.7031 20.2536 83.9355 20.3174C84.1725 20.3766 84.4049 20.4473 84.6328 20.5293C84.8607 20.6068 85.0794 20.7002 85.2891 20.8096C85.5033 20.9144 85.6901 21.0443 85.8496 21.1992C86.0091 21.3542 86.1367 21.5365 86.2324 21.7461C86.3281 21.9512 86.376 22.195 86.376 22.4775ZM90.8125 25H88.4951V18.0205H87.0596V17.1045H88.4951V14.1992H90.8125V17.1045H93.2051V18.0205H90.8125V25ZM101.969 25H99.6582V24.0566C99.3848 24.4303 99.0544 24.7083 98.667 24.8906C98.2842 25.0684 97.8626 25.1572 97.4023 25.1572C96.8008 25.1572 96.263 25.0501 95.7891 24.8359C95.3151 24.6217 94.9141 24.3301 94.5859 23.9609C94.2578 23.5872 94.0072 23.1497 93.834 22.6484C93.6608 22.1471 93.5742 21.6094 93.5742 21.0352C93.5742 20.4609 93.6608 19.9232 93.834 19.4219C94.0072 18.9206 94.2578 18.4854 94.5859 18.1162C94.9141 17.7425 95.3151 17.4486 95.7891 17.2344C96.263 17.0202 96.8008 16.9131 97.4023 16.9131C97.7077 16.9131 97.9971 16.9587 98.2705 17.0498C98.5485 17.141 98.8014 17.2708 99.0293 17.4395C99.2617 17.6035 99.4645 17.804 99.6377 18.041C99.8154 18.2734 99.9544 18.5332 100.055 18.8203L101.08 17.1045H101.969V25ZM99.6445 21.0352C99.6445 20.8301 99.6331 20.6136 99.6104 20.3857C99.5921 20.1579 99.5579 19.9323 99.5078 19.709C99.4577 19.4857 99.387 19.2738 99.2959 19.0732C99.2093 18.8682 99.0954 18.6882 98.9541 18.5332C98.8174 18.3737 98.651 18.2484 98.4551 18.1572C98.2591 18.0661 98.0312 18.0205 97.7715 18.0205C97.5117 18.0205 97.2861 18.0684 97.0947 18.1641C96.9033 18.2552 96.7393 18.3805 96.6025 18.54C96.4658 18.695 96.3519 18.875 96.2607 19.0801C96.1742 19.2852 96.1058 19.4993 96.0557 19.7227C96.0055 19.946 95.9691 20.1715 95.9463 20.3994C95.9281 20.6227 95.9189 20.8346 95.9189 21.0352C95.9189 21.2357 95.9281 21.4499 95.9463 21.6777C95.9691 21.9056 96.0055 22.1312 96.0557 22.3545C96.1058 22.5778 96.1742 22.792 96.2607 22.9971C96.3519 23.2021 96.4658 23.3844 96.6025 23.5439C96.7393 23.6989 96.9033 23.8242 97.0947 23.9199C97.2861 24.0111 97.5117 24.0566 97.7715 24.0566C98.0085 24.0566 98.2181 24.0088 98.4004 23.9131C98.5872 23.8128 98.749 23.6807 98.8857 23.5166C99.027 23.3525 99.1455 23.1657 99.2412 22.9561C99.3369 22.7464 99.4144 22.5299 99.4736 22.3066C99.5329 22.0833 99.5762 21.8623 99.6035 21.6436C99.6309 21.4202 99.6445 21.2174 99.6445 21.0352ZM106.877 25H104.56V18.0205H103.124V17.1045H104.56V14.1992H106.877V17.1045H109.27V18.0205H106.877V25ZM111.888 21.2539C112.17 21.3177 112.453 21.3678 112.735 21.4043C113.018 21.4408 113.303 21.459 113.59 21.459C113.891 21.459 114.169 21.4316 114.424 21.377C114.684 21.3177 114.907 21.222 115.094 21.0898C115.285 20.9531 115.436 20.7731 115.545 20.5498C115.654 20.3265 115.709 20.0485 115.709 19.7158C115.709 19.4469 115.673 19.2008 115.6 18.9775C115.527 18.7542 115.417 18.5628 115.271 18.4033C115.13 18.2438 114.955 18.1208 114.745 18.0342C114.535 17.943 114.292 17.8975 114.014 17.8975C113.754 17.8975 113.519 17.9453 113.31 18.041C113.104 18.1367 112.922 18.2666 112.763 18.4307C112.608 18.5902 112.473 18.777 112.359 18.9912C112.25 19.2054 112.159 19.4287 112.086 19.6611C112.013 19.8936 111.961 20.1283 111.929 20.3652C111.897 20.6022 111.881 20.8255 111.881 21.0352C111.881 21.0716 111.881 21.1081 111.881 21.1445C111.881 21.181 111.883 21.2174 111.888 21.2539ZM117.582 19.6953C117.582 20.0189 117.53 20.3083 117.425 20.5635C117.32 20.8141 117.176 21.0352 116.994 21.2266C116.816 21.418 116.609 21.5798 116.372 21.7119C116.135 21.8441 115.882 21.9535 115.613 22.04C115.344 22.1221 115.066 22.1813 114.779 22.2178C114.497 22.2542 114.221 22.2725 113.952 22.2725C113.61 22.2725 113.273 22.2497 112.94 22.2041C112.608 22.154 112.28 22.0765 111.956 21.9717C112.006 22.2725 112.086 22.5596 112.195 22.833C112.305 23.1019 112.451 23.3389 112.633 23.5439C112.815 23.7445 113.038 23.904 113.303 24.0225C113.572 24.141 113.888 24.2002 114.253 24.2002C114.494 24.2002 114.725 24.1637 114.943 24.0908C115.162 24.0179 115.363 23.9154 115.545 23.7832C115.727 23.651 115.887 23.4938 116.023 23.3115C116.165 23.1292 116.279 22.9264 116.365 22.7031L117.363 23.0723C117.213 23.4323 117.006 23.7445 116.741 24.0088C116.481 24.2686 116.185 24.485 115.853 24.6582C115.524 24.8268 115.174 24.9521 114.8 25.0342C114.431 25.1162 114.064 25.1572 113.699 25.1572C113.098 25.1572 112.542 25.057 112.031 24.8564C111.521 24.6514 111.081 24.3665 110.712 24.002C110.343 23.6374 110.053 23.2021 109.844 22.6963C109.634 22.1904 109.529 21.6367 109.529 21.0352C109.529 20.4336 109.634 19.8799 109.844 19.374C110.053 18.8682 110.343 18.4329 110.712 18.0684C111.081 17.7038 111.521 17.4212 112.031 17.2207C112.542 17.0156 113.098 16.9131 113.699 16.9131C113.991 16.9131 114.289 16.9336 114.595 16.9746C114.9 17.0156 115.196 17.0817 115.483 17.1729C115.771 17.2594 116.042 17.3734 116.297 17.5146C116.552 17.6559 116.773 17.8314 116.96 18.041C117.151 18.2461 117.302 18.4854 117.411 18.7588C117.525 19.0322 117.582 19.3444 117.582 19.6953Z" fill="white"/>
<defs>
<clipPath id="clip0_378_49">
<rect width="34" height="34" fill="white" transform="translate(0 2)"/>
</clipPath>
</defs>
</svg>
